<?xml version="1.0" standalone="no"?>
<!DOCTYPE svg PUBLIC "-//W3C//DTD SVG 20010904//EN"
 "http://www.w3.org/TR/2001/REC-SVG-20010904/DTD/svg10.dtd">
<svg version="1.0" xmlns="http://www.w3.org/2000/svg"
 width="512.000000pt" height="512.000000pt" viewBox="0 0 512.000000 512.000000"
 preserveAspectRatio="xMidYMid meet">

<g transform="translate(0.000000,512.000000) scale(0.100000,-0.100000)"
fill="#000000" stroke="none">
<path d="M2330 5109 c-204 -19 -464 -77 -646 -144 -128 -47 -375 -168 -488
-240 -200 -127 -408 -306 -573 -495 -103 -117 -106 -125 -41 -96 133 59 350
82 488 52 190 -40 320 -163 383 -361 46 -145 47 -394 3 -590 -14 -60 -52 -229
-85 -375 -134 -594 -202 -1062 -172 -1194 18 -82 65 -145 136 -181 48 -25 73
-31 143 -34 189 -8 356 60 540 218 80 69 212 220 212 244 0 8 -16 79 -34 158
-120 498 -173 1243 -106 1479 46 160 147 299 254 349 101 47 199 64 331 59
179 -8 272 -50 357 -163 79 -105 105 -234 88 -445 -31 -381 -174 -889 -368
-1303 l-45 -98 33 -77 c173 -395 402 -516 699 -371 198 97 385 355 524 724 74
197 188 620 170 635 -4 3 -37 12 -73 19 -283 55 -529 298 -594 588 -18 83 -21
228 -5 305 33 162 156 322 299 391 189 90 424 87 585 -8 179 -104 284 -387
273 -739 -1 -64 -2 -116 0 -116 7 0 86 43 129 70 55 35 124 41 162 14 22 -16
23 -22 19 -90 -10 -145 -111 -280 -267 -355 -48 -22 -73 -41 -76 -54 -2 -11
-13 -92 -25 -180 -52 -398 -137 -696 -285 -1004 -175 -362 -403 -597 -697
-719 -227 -95 -531 -120 -693 -58 -174 67 -325 218 -454 456 l-37 70 -73 -83
c-199 -226 -425 -377 -662 -443 -126 -35 -358 -44 -497 -20 -189 33 -327 99
-438 210 -110 111 -162 221 -189 405 -30 199 -25 228 160 966 156 618 177 725
178 905 1 243 -54 352 -177 352 -60 0 -86 -13 -215 -107 -64 -46 -129 -88
-144 -94 -41 -16 -98 -13 -117 4 -16 14 -20 8 -53 -77 -158 -413 -204 -886
-131 -1328 41 -248 113 -470 229 -705 138 -281 260 -451 490 -680 229 -230
399 -352 680 -490 181 -89 304 -135 479 -180 445 -113 847 -113 1292 0 175 45
298 91 479 180 281 138 451 260 680 490 230 229 352 399 490 680 89 181 135
304 180 479 113 445 113 847 0 1292 -45 175 -91 298 -180 479 -138 281 -260
451 -490 680 -229 230 -399 352 -680 490 -181 89 -304 135 -479 180 -297 76
-595 101 -876 74z"/>
<path d="M4045 3816 c-50 -50 -43 -215 14 -331 29 -58 127 -165 151 -165 13 0
23 161 18 269 -9 157 -57 251 -130 251 -17 0 -39 -10 -53 -24z"/>
<path d="M2565 3566 c-54 -54 -73 -227 -57 -521 11 -198 34 -423 51 -490 7
-27 12 -15 49 100 78 245 115 450 116 660 1 152 -8 194 -51 245 -31 38 -74 40
-108 6z"/>
</g>
</svg>
